<?xml version="1.0" encoding="UTF-8"?>
<svg version="1.1" viewBox="0 0 197 197" xmlns="http://www.w3.org/2000/svg">
  <g fill="#fff">
    <g>
      <path style="fill-opacity:0.58" d="m 0,188 h 59 v 9 H 0 c 0,-3 0,-6 0,-9 z" />
      <path style="fill-opacity:0.65" d="m 0,172 h 20 v 12 H 0 c 0,-4 0,-8 0,-12 z" />
      <path style="fill-opacity:0.77" d="m 0,156 h 20 v 12 H 0 c 0,-4 0,-8 0,-12 z" />
      <path style="fill-opacity:1" d="M 0,29 H 66 V 47 H 20 v 34 h 39 v 20 H 20 v 33 h 46 v 18 H 0 C 0,111 0,70 0,29 Z" />
      <path style="fill-opacity:0.77" d="M 0,13 H 20 V 25 H 0 C 0,21 0,17 0,13 Z" />
      <path style="fill-opacity:0.65" d="m 0,-1e-7 h 20 v 9 H 0 c 0,-3 0,-6 0,-9 z" />
    </g>
    <g>
      <path style="fill-opacity:0.58" d="m 83.011719,188.09961 c 0.390611,3.03282 1.110722,6.02383 2.148437,8.90039 9.436848,0 18.873694,0 28.310544,0 -2.69576,-2.35282 -5.06171,-5.32815 -5.81836,-8.90039 -8.21354,0 -16.427081,0 -24.640621,0 z" />
      <path style="fill-opacity:0.65" d="m 84.36718,172.4375 c -1.173844,3.69127 -1.724752,7.57567 -1.66015,11.44727 8.15495,0 16.3099,0 24.46485,0 -0.17296,-3.9879 0.83341,-8.00164 2.84547,-11.44727 -8.55006,0 -17.100113,0 -25.65017,0 z" />
      <path style="fill-opacity:0.77" d="m 95.359367,156.25586 c -3.949475,3.22744 -7.055674,7.20757 -9.201172,11.66992 h 27.078125 c 4.52565,-4.98615 7.23741,-6.86917 13.92383,-11.66992 z" />
      <path style="fill-opacity:1" d="m 101.63086,29.037109 c -1.3438,0.991236 -2.69629,1.975673 -4.09961,2.941407 C 86.35197,39.670062 80.82927,52.911888 83.03711,66.732422 85.10298,79.664289 90.9735,87.329161 105.01953,95.431641 122.73629,105.65157 128,111.42035 128,120.61914 c 0,8.54025 -6.659,17.26687 -20.25,26.53516 -2.1633,1.57104 -4.23327,3.13698 -6.33594,4.68164 h 31.66797 c 0.29539,-0.21789 0.23545,-0.16777 3.51758,-2.66406 5.3732,-3.89678 10.93001,-9.45633 12.79492,-15.1211 1.60796,-4.88428 2.10488,-6.50206 2.10547,-14.05078 6.6e-4,-8.31342 -0.35048,-10.24942 -2.80273,-15.5 -3.82942,-8.199269 -8.32636,-12.511739 -21.06836,-20.207031 -17.22161,-10.400672 -20.65073,-14.38491 -20.60743,-23.94336 0.0414,-9.129972 5.69868,-16.892068 18.69727,-25.65625 1.96561,-2.066561 4.27762,-3.862777 6.69141,-5.65625 z" />
      <path style="fill-opacity:0.77" d="m 121.25195,13.003906 c -3.29737,3.789889 -7.83509,7.650945 -13.64257,11.611328 -0.14612,0.106132 -0.28638,0.212246 -0.43165,0.31836 h 30.69141 c 3.94688,-3.102631 7.78224,-6.706748 10.61914,-11.929688 z" />
      <path style="fill-opacity:0.65" d="m 127.70508,-0.001953 c -0.33886,2.913478 -1.40792,5.849859 -3.30078,8.826172 h 25.89258 c 0.68249,-2.233619 0.95358,-4.806172 1.02929,-8.826172 z" />
    </g>
    <g>
      <path style="fill-opacity:0.58" d="m 173,189 h 19 v 8 h -19 c 0,-2.66667 0,-5.33333 0,-8 z" />
      <path style="fill-opacity:0.65" d="m 172.99999,172 h 19 v 12 h -19 c 0,-4 0,-8 0,-12 z" />
      <path style="fill-opacity:0.77" d="m 172.99999,156 h 19 v 12 h -19 c 0,-4 0,-8 0,-12 z" />
      <path style="fill-opacity:1" d="m 173,29.000005 h 19 V 152 h -19 c 0,-41 0,-81.999997 0,-122.999995 z" />
      <path style="fill-opacity:0.77" d="m 172.99999,13.000001 h 19 V 25 h -19 c 0,-4 0,-7.999999 0,-11.999999 z" />
      <path style="fill-opacity:0.65" d="m 172.99999,-3.1e-7 h 19 V 8.9999997 h -19 c 0,-3 0,-6 0,-9.00000001 z" />
    </g>
  </g>
</svg>
